<?xml version="1.0" encoding="utf-8"?>
<!-- Generator: $$$/GeneralStr/196=Adobe Illustrator 27.6.0, SVG Export Plug-In . SVG Version: 6.00 Build 0)  -->
<svg version="1.1" id="圖層_1" xmlns="http://www.w3.org/2000/svg" xmlns:xlink="http://www.w3.org/1999/xlink" x="0px" y="0px"
	 viewBox="0 0 220 430" style="enable-background:new 0 0 220 430;" xml:space="preserve">
<style type="text/css">
	.st0{fill:#FFFEEF;}
	.st1{opacity:0.1;}
	.st2{fill:none;stroke:#FFFEEF;stroke-width:3;stroke-linecap:round;stroke-miterlimit:10;}
</style>
<g>
	<g>
		<g>
			<path class="st0" d="M121.4,142.3l9.8,4h3.1v-8.7h-14.9l-0.8-3h15.7v-14.9l14.5,1.2c-0.1,1.3-0.9,2.3-3.4,2.7v10.9h2.9l5.7-7.4
				c0,0,5.6,4.4,9.5,8.1l10.8,4.3h6.2v-6.8h-19.6l-0.8-3h20.5v-9.9l14.4,1.3c-0.3,1.4-1.1,2.5-3.8,2.8v5.8h7.8l5.8-7.3
				c0,0,6.5,5.1,10.5,8.7c-0.3,1.1-1.3,1.7-2.8,1.7H191v6.8h6.4l5-5.2l10.2,7.5c-0.5,0.7-1.8,1.4-3.3,1.8v19.8
				c-0.1,0.6-3.6,2.3-6.8,2.9c13.7,3.2,12,13.4,5.9,13.9c1.3,1.2,5.4,5.2,7.8,8c-0.3,1.1-1.3,1.7-2.8,1.7h-12.9v14.6
				c0,7.7-1.7,12-14.1,13c-0.2-3.4-0.6-6-1.9-7.6c-1.1-1.4-3-2.7-7.2-3.4v-0.6c-2,0.7-4.5,0.3-6.8-1.9c0.2-4.6-1.7-9.9-3.9-13.3
				l0.9-0.5c15.6,3.3,15.6,12,11.3,15l8.6,0.5c1.3,0,1.8-0.4,1.8-1.5V190h-27.9l4,3.5c-0.2,1.1-1.3,1.7-2.8,1.7h-17v18.6
				c-0.1,0.7-3.5,3.1-9.1,3.1h-2v-21.7h-15.6l-0.8-3h16.4v-12.7h-3.5v3.7c0,0.9-4,3.1-8,3.1h-1.4v-40V142.3z M135.4,149.3h-4.5v12
				h4.5V149.3z M130.8,164.2v12.4h4.5v-12.4H130.8z M148.9,161.3v-12h-4.5v12H148.9z M144.4,176.6h4.5v-12.4h-4.5V176.6z
				 M163.5,137.1c-0.4,0.3-1.1,0.5-2,0.5h-16.1v8.7h2.7l4.5-5l9.6,7.4c-0.6,0.7-2,1.5-3.8,1.9v31.1c-0.1,0.9-4.6,3.2-8,3.2h-1.5
				v-5.5h-3.5v12.7h3.6l5.7-7.4l5.9,4.8l-0.7-2.4h29.2v-9.8l14.9,1.3c-0.2,1.4-1.2,2.2-3.4,2.6v5.9h2.3l4.4-6.8
				c-0.8,0-1.7-0.3-2.5-0.7c-0.7-2.1-2.1-4.2-3.7-6.3c-7.6,2.4-18.1,5.5-32.5,9.2c-0.6,1.2-1.8,2-2.8,2.2l-5.1-11.7
				c4.2-0.1,11.3-0.3,19.8-0.8v-9.2h-6.7v2.6c0,0.9-4.5,3.1-8.9,3.1h-1.4v-29V137.1z M180.5,142.5h-6.7v7.2h6.7V142.5z M173.8,152.7
				v7.2h6.7v-7.2H173.8z M198.4,149.7v-7.2H191v7.2H198.4z M191,159.9h7.3v-7.2H191V159.9z M198.4,165.7v-2.8H191v8.6l8.2-0.5
				c-1.7-1.8-3.4-3.4-5-4.6l0.8-0.8L198.4,165.7z"/>
			<path class="st0" d="M216.3,258.7c-0.4,1.1-1.5,1.7-3.1,1.7h-20.3c-2.3,13.8-6.3,25.9-14,35.9c42.6,15.9,28.5,32.1,17.7,27.3
				c-6.2-6.6-15.3-13.2-25.3-19.2c-11.1,9.7-27.3,16.7-51.3,20.6l-0.7-1.2c20.1-6.1,33.8-14.5,42.9-24.5
				c-9.6-5.1-19.6-9.4-28.8-12.5c3-6.4,6.8-16.3,10.4-26.3h-22.8l-0.9-3h24.8c3.9-11.5,7.3-22.7,8.7-28.8l17.2,4.3
				c-0.4,1.2-1.2,2.4-4.4,2.3c-1.9,5.5-4.5,13.5-7.6,22.2h20.8c0.5-4.4,0.8-8.9,1-13.5l18.1,3.9c-0.5,1.7-1.9,2.5-4.1,2.5l-0.9,7.1
				h2.5l7.2-9.4C203,247.9,211.3,254.2,216.3,258.7z M178.9,260.3h-21.5c-3.4,9.4-7.2,19.1-10.6,26.8c7.7,1.8,14.7,3.5,20.7,5.4
				C173.9,282.9,177.2,272.1,178.9,260.3z"/>
			<path class="st0" d="M159.6,425.5v-38.7h-31.5l-0.8-3h32.3v-34h-35.4l-0.8-3h66l7.3-9.3c0,0,8.3,6.3,13.2,10.6
				c-0.2,1.1-1.3,1.7-2.9,1.7H173v34h13.5l7-8.9c0,0,8,6,12.8,10.2c-0.3,1.1-1.3,1.7-2.9,1.7H173v38.7h20.8l7.4-9.4
				c0,0,8.5,6.4,13.5,10.7c-0.3,1.1-1.3,1.7-3,1.7H120l-0.8-3H159.6z"/>
		</g>
		<path class="st0" d="M112.9,1.5v106.1H219V1.5H112.9z M159.9,6.9c25,5.8,14.2,24.4,4.8,16.4c-0.1-5.6-2.9-11.8-5.8-15.9L159.9,6.9
			z M184,26.5c1.3-5.1,3.3-13.1,4.6-20.1l15.2,4.3c-0.4,1.2-1.7,2.2-3.9,2.2c-4,4.9-8.8,9.9-13,13.6h8.8l6.2-7.7c0,0,7,5.3,11.4,9
			c-0.2,1.1-1.3,1.7-2.8,1.7h-24.7v22.4c0,2.4-0.1,4.8-0.4,7.1h8.5V34.3l14.7,1.3c-0.2,1.4-1,2.5-3.8,2.9v26.6
			c0,0.8-4.9,2.8-9.1,2.8h-1.8v-6.1h-9c-2.1,10.4-8.8,19.9-29.4,26l-0.8-1.1c12.9-6.8,17.7-15.2,19.2-24.9h-6.6l-3.5,5.7l-11.5-6.9
			c0.8-0.9,2.1-2,3.3-2.9V34.3l14.8,1.4c-0.2,1.1-1.1,2-3.9,2.5v20.7h7.8c0.2-2.3,0.3-4.6,0.3-7V29.3h-23.8l-0.8-2.9H184z M122,9.1
			c28.8,0.2,21.1,22.5,9.5,16.1c-1.5-5.6-6.2-11.9-10.3-15.4L122,9.1z M214.6,91.2c-4,0.9-5.9,4.9-6.1,9.3c-7,0-25.1,0-32.5,0
			c-19.4,0-30.5-3.3-37.7-16c-5.1,7.2-11.6,13.8-19.6,19.1l-1-1.1c10.8-12,18-30.1,21-46h-6l-3.7,3.4l-9.1-6.7c1-0.7,2.6-1.4,4.1-2
			c3.6-5,8.4-12.4,11.4-17.7H120l-0.9-3h16.5l5.2-5.1l10,9.1c-0.9,1-3,1.5-5.4,1.7c-2.9,4.6-7.9,12.2-11.6,17.4h4.1l6.1-6.2l10.5,9
			c-0.6,1-1.7,1.3-4,1.5c-2.2,8-5.6,16.1-10.4,23.8c7.3,7.3,18.2,8.5,36,8.5c8.6,0,29.4,0,38.4-0.3V91.2z"/>
		<path class="st1" d="M121.8,9.3l0.3-0.2c20.4,0.1,22.5,11.4,17.8,15.6l0.9,0.8l0,0l0.9,0.8l1.3,1.2l0,0l7.8,7.1
			c-0.9,1-3,1.5-5.4,1.7c-2.9,4.6-7.9,12.2-11.6,17.4h4.1l6.1-6.2l10.5,9c-0.6,1-1.7,1.3-4,1.5c-2.2,8-5.6,16.1-10.4,23.8
			c7.3,7.3,18.2,8.5,36,8.5c8.6,0,29.4,0,38.4-0.3v0.4l4.5-7V1.5h-89.6L121.8,9.3L121.8,9.3z M159.9,6.9c25,5.8,14.2,24.4,4.8,16.4
			c-0.1-5.6-2.9-11.8-5.8-15.9L159.9,6.9z M184,26.5c1.3-5.1,3.3-13.1,4.6-20.1l15.2,4.3c-0.4,1.2-1.7,2.2-3.9,2.2
			c-4,4.9-8.8,9.9-13,13.6h8.8l6.2-7.7c0,0,7,5.3,11.4,9c-0.2,1.1-1.3,1.7-2.8,1.7h-24.7v22.4c0,2.4-0.1,4.8-0.4,7.1h8.5V34.3
			l14.7,1.3c-0.2,1.4-1,2.5-3.8,2.9v26.6c0,0.8-4.9,2.8-9.1,2.8h-1.8v-6.1h-9c-2.1,10.4-8.8,19.9-29.4,26l-0.8-1.1
			c12.9-6.8,17.7-15.2,19.2-24.9h-6.6l-3.5,5.7l-11.5-6.9c0.8-0.9,2.1-2,3.3-2.9V34.3l14.8,1.4c-0.2,1.1-1.1,2-3.9,2.5v20.7h7.8
			c0.2-2.3,0.3-4.6,0.3-7V29.3h-23.8l-0.8-2.9H184z"/>
	</g>
	<g>
		<line class="st2" x1="43.7" y1="379.3" x2="43.7" y2="416.2"/>
		<line class="st2" x1="43.7" y1="20.3" x2="43.7" y2="57.2"/>
	</g>
	<g>
		<g>
			<path class="st0" d="M57.3,95.6v19.3c0,0.3-1.9,1.3-3.7,1.3h-0.9v-17c-1,1.1-2.2,2.2-3.3,3.1L49,102c2.3-4.3,4.6-11,5.5-17.4
				l6.4,1.8c-0.1,0.4-0.6,0.7-1.3,0.7c-0.9,2.6-2,4.9-3.2,7l2,0.7C58.2,95.2,57.9,95.5,57.3,95.6z M80.4,97.8
				c-0.1,0.4-0.5,0.5-0.9,0.5h-5.8c0.5,4.3,1.6,8.1,3.6,10.4c0.4,0.4,0.7,0.4,1-0.1c0.5-0.8,1.3-2.4,1.8-3.7l0.4,0.1l-0.7,5.4
				c0.9,2,1.3,3.4,0.3,4.2c-1.9,1.5-4.5-0.1-5.7-1.4c-3.2-3.9-4.5-9.1-5-14.8H65v9.1l5.2-1.3l0.1,0.3c-1.5,1.3-4.3,3.6-8,6.2
				c-0.3,0.5-0.7,0.8-1.1,1l-2.7-4.9c1.6-0.8,1.8-1.2,1.8-2.1v-19l4.8,1.5c3.5-1.4,7.2-3.1,9.2-4.4l4.7,4.4c-0.4,0.4-1.2,0.4-2.4,0
				c-0.9,0.2-2,0.4-3.1,0.6c-0.2,2.6-0.2,5.3,0.1,7.8h0.2l2.4-3.3C76.2,94.2,78.8,96.4,80.4,97.8z M73.7,114.1
				c-0.1,0.4-0.4,0.5-0.9,0.5H61.6l-0.3-0.9h7.2l1.8-2.5C70.3,111.3,72.4,112.9,73.7,114.1z M65,97.4h4.2C69,95.1,69,92.7,69,90.2
				c-1.3,0.1-2.6,0.3-4,0.3v1.1V97.4z"/>
			<path class="st0" d="M56.6,155.9h-0.7v-13c-2.1,1.2-4.3,2.2-6.6,2.9l-0.2-0.4c5.9-3.6,11.6-10.4,12.7-15.1l7.1,1.8
				c-0.1,0.5-0.6,0.7-1.8,0.8c3,3.8,9.4,5.5,14,6.2v0.5c-2.1,0.7-3.4,2.9-3.7,4.8l-1.7-0.8c-0.2,0.3-0.6,0.5-1.3,0.7v10.2
				c0,0.2-2.5,1.1-4.1,1.1h-0.8v-2.8h-8.9v1.5C60.7,154.9,58.6,155.9,56.6,155.9z M61.4,127.8c-2.3,3.2-6,6.8-10.9,8.7l-0.2-0.3
				c3.3-3.1,5.7-8,6.7-11.6l5.7,2.7C62.6,127.6,62.2,127.8,61.4,127.8z M58.1,141.6l2.8,1.1h8.3l2-2.2c-2-1.9-3.6-4.2-4.5-7.1
				C64.8,136.3,61.7,139.2,58.1,141.6z M69.6,143.6h-8.9v8.4h8.9V143.6z M74.5,134.3c-1.5-3.2-4.6-6.7-7.3-9l0.3-0.2
				C82.1,126.9,79.6,136.9,74.5,134.3z"/>
			<path class="st0" d="M51.5,168.8l5.1,2h4.3c0.5-2.1,1-4.7,1.3-6.5l6.9,1.5c-0.1,0.4-0.5,0.7-1.3,0.7c-1.3,1.2-2.9,2.9-4.7,4.3H74
				l2.1-2.4l4.3,3.3c-0.2,0.3-0.6,0.6-1.3,0.7v17.9c0,3.1-0.7,4.8-6.1,5.3c-0.1-1.5-0.4-2.6-1-3.3c-0.7-0.7-1.5-1.3-3.4-1.6v-0.4
				c0,0,4,0.3,5.1,0.3c0.6,0,0.7-0.3,0.7-0.7v-18.1H56.2v22.2c0,0.6-2,1.7-3.9,1.7h-0.8v-24.8V168.8z M58.8,174.7l4.4,1.7h3.6l2-2.2
				l4.1,3.1c-0.2,0.3-0.7,0.6-1.3,0.7v8.7c0,0.3-2.2,1.2-3.6,1.2h-0.8v-2.9h-4v2.5c0,0.4-1.9,1.4-3.7,1.4h-0.6v-12.5V174.7z
				 M67.2,184.1v-6.8h-4v6.8H67.2z"/>
			<path class="st0" d="M61.3,232.7v-28.2l6.5,0.6c-0.1,0.5-0.3,0.8-1.2,1v11.2h4.3l2.7-3.5c0,0,3,2.3,4.9,3.9
				c-0.1,0.4-0.5,0.5-1,0.5H66.6v14.5h6.5l2.8-3.5c0,0,3.1,2.4,5,3.9c-0.1,0.4-0.5,0.5-1,0.5H49.6l-0.3-0.9H61.3z"/>
			<path class="st0" d="M72.2,246.3c-0.6,1.4-1.2,2.7-1.9,3.9h4.1l2.5-2.5l4,3.6c-0.3,0.3-0.7,0.6-1.5,0.7
				c-0.2,13.9-0.6,19.3-2.6,21.3c-1.3,1.3-2.8,1.9-5.3,1.9c0-1.6-0.2-2.6-0.8-3.3c-0.6-0.7-1.9-1.3-3.6-1.7l0-0.4
				c1.6,0.1,3.8,0.3,4.7,0.3c0.6,0,0.9-0.1,1.2-0.4c1.2-1.1,1.5-7.2,1.7-18.4h-5.1c-1.7,2.8-3.7,5.2-6.1,7l-0.2-0.1v13.4
				c0,0.3-2.2,1.2-3.7,1.2H59V270H55v2.3c0,0.5-1.7,1.5-3.6,1.5h-0.7v-25.3l4.2,1.7c0.2-1.9,0.3-4.5,0.4-6.4l6.4,1.5
				c-0.2,0.6-0.6,0.8-1.4,0.8c-1,1.2-2.5,2.8-3.7,4.1h2.2l2.1-2.3l4.1,3.2c-0.2,0.3-0.7,0.6-1.3,0.7v5.5c1.6-3.5,3.1-8.8,3.9-13.7
				l6.2,1.8C73.4,246,73,246.3,72.2,246.3z M55,251.2v8.2H59v-8.2H55z M55,269.1H59v-8.7H55V269.1z M67.8,263.9
				c-0.1-2.4-1-5-2.2-6.8l0.3-0.2C76.4,259.3,71.9,267.4,67.8,263.9z"/>
			<path class="st0" d="M67.2,284.1c-0.1,0.5-0.4,0.8-1.2,0.9c-0.1,2.4-0.1,4.8-0.2,7.1h6.7l2.6-2.6l4.2,3.7
				c-0.3,0.3-0.7,0.6-1.5,0.7c-0.4,11.2-1.1,17-3.2,18.9c-1.4,1.3-2.9,1.8-5.8,1.8c0-1.5-0.2-2.7-1-3.4c-0.8-0.8-2.4-1.5-4.4-1.9
				V309c2.1,0.1,5.1,0.3,6.1,0.3c0.6,0,1-0.1,1.3-0.4c1.2-1,1.8-6.8,2.1-15.8h-7.1c-0.6,9-3.2,16.7-15.9,21.8l-0.3-0.4
				c8.7-6.2,10.7-13.2,11.1-21.4h-9.5l-0.3-0.9h9.8c0.1-2.7,0.1-5.6,0.1-8.6L67.2,284.1z"/>
			<path class="st0" d="M62.6,349.1v-2.7h-3.3v0.4c0,0.4-2.2,1.5-4.1,1.5h-0.7v-11.9l5.1,1.9h10.7l2-2.2H50.3l-0.3-0.9H74l2.2-2.8
				c0,0,2.5,1.9,4,3.2c-0.1,0.4-0.5,0.5-0.9,0.5h-6.5l4.2,3.1c-0.2,0.3-0.7,0.7-1.4,0.8v6.2c0,0.1-0.3,0.2-0.7,0.3
				c0.9,0.7,2.4,1.9,3.4,2.8c-0.1,0.4-0.5,0.5-0.9,0.5h-0.7c0.6,0.5,2.7,2.1,4.1,3.3c-0.1,0.4-0.5,0.5-1,0.5H49.9l-0.3-0.9h12.9
				v-2.9H52.5l-0.3-0.9H62.6z M54.9,323.5l5,1.9H70l2.1-2.3l4.4,3.2c-0.2,0.3-0.6,0.6-1.3,0.7v6c0,0.2-2.5,1-4,1h-0.8v-0.9H59.6v0.3
				c0,0.4-2.1,1.4-4,1.4h-0.7v-9.4V323.5z M62.6,342v-2.6h-3.3v2.6H62.6z M59.2,345.5h3.3v-2.6h-3.3V345.5z M70.4,326.3H59.6v2.4
				h10.8V326.3z M59.6,329.6v2.5h10.8v-2.5H59.6z M70.6,339.3h-3.4v2.6h3.4V339.3z M67.2,342.9v2.6h3.4v-2.6H67.2z M67.2,346.5v2.7
				h4.6l1.6-2c-0.7,0.1-1.4,0.2-1.9,0.2h-0.8v-0.9H67.2z M67.2,350.1v2.9H74l2.2-2.9H67.2z"/>
		</g>
		<g>
			<path class="st0" d="M30.3,86.6c-0.1,0.4-0.4,0.7-1.2,0.7c-0.5,1.1-1.1,2.3-1.9,3.5c8.5,1.2,5.3,8.1,1.3,5.6
				c-0.4-1.5-1.2-3.1-2.1-4.4c-1.4,1.9-3.1,3.7-5.2,5.1l4.8,0.5c-0.1,0.4-0.4,0.8-1.2,0.9v4.7H26l2.2-2.8c0,0,2.5,1.9,3.9,3.2
				c-0.1,0.4-0.5,0.5-0.9,0.5h-6.3v6.4c1.1,0.1,2.3,0.2,3.7,0.2c1,0,3.3,0,4.6,0v0.4c-1.3,0.3-2,2.1-1.9,4.2c-0.7,0-2.3,0-3,0
				c-6.2,0-9.9-1.6-11.7-7.5c-1.2,3.1-3.1,6.1-6.1,8.3l-0.3-0.3c2.7-4.9,3.3-11.8,3.2-16.7l6.2,1c-0.1,0.5-0.5,0.8-1.3,0.9
				c-0.3,1.8-0.6,3.6-1.2,5.4c0.8,1.3,1.9,2.3,3.2,2.9V97.1l0.3,0c0.3-0.5,0.5-1,0.8-1.6c-0.8,0.3-1.9,0.2-2.8-0.6
				c-0.1-0.9-0.3-1.8-0.6-2.6c-1.5,2.3-3.5,4.4-5.9,6L11.7,98c0.7-1.2,1.3-2.5,1.7-3.8c-0.1,0.3-0.5,0.5-1.2,0.4
				c-0.9,1.2-1.9,2.4-3.1,3.7L11,99c-0.1,0.3-0.4,0.5-1,0.6v15.1c0,0.4-1.9,1.5-3.8,1.5H5.4v-14.5c-1.3,1-2.6,1.9-4,2.7l-0.3-0.3
				c2.9-3.6,5.6-9.2,6.8-12.8l5.6,2.8c1.1-3.2,1.7-6.7,1.9-9.3l6.3,1.9c-0.1,0.4-0.4,0.7-1.2,0.7c-0.4,1-1,2.2-1.6,3.2
				c1.9,0.4,3,1.2,3.4,2c0.9-2.7,1.4-5.6,1.7-7.8L30.3,86.6z M13,87.7c-0.2,0.3-0.5,0.5-1.3,0.5c-2.4,2.2-6.2,5-10.1,6.7l-0.3-0.3
				c2.5-2.8,5.1-7.2,6.2-9.9L13,87.7z"/>
			<path class="st0" d="M15.4,136.2l2.7,2.1c-0.2,0.2-0.6,0.6-1.3,0.7v6.6c0,2.3-0.6,3.4-4.6,3.8c-0.1-1-0.1-1.8-0.5-2.2
				s-0.7-0.8-1.9-1v-0.4c0,0,1.8,0.1,2.4,0.1c0.4,0,0.5-0.2,0.5-0.5v-1.8c-1.1,0.9-2.4,1.9-4,2.9c-0.1,0.4-0.4,0.7-0.8,0.9l-0.9-2
				c-0.8,1.8-2.3,3.4-5.5,4.6l-0.2-0.3c2.3-2.3,2.4-5.2,2.4-8v-5.7l-1.3-3.2c0,0,0.6-0.1,1-0.3c1.7-0.6,3.9-3.4,4.5-4.7l5.9,2.1
				c-0.1,0.3-0.5,0.6-1.2,0.6c-1.8,1.1-4.7,2.3-7.2,2.9h0.5h7.5c-0.4-0.8-0.9-1.5-1.5-2.1l0.3-0.2C20.3,131.4,18.4,137,15.4,136.2z
				 M5.3,157C4,157.5,2.4,157,2,155.6c-0.3-1.4,0.5-2.4,1.7-2.8c1.2-0.5,2.5-1.8,2.5-3.4h0.4C8.3,153.3,7.1,156.1,5.3,157z
				 M12.4,137.4l1.8-2l0.1,0.1c-0.1-0.4-0.2-0.8-0.3-1.2c-2,0.6-4.8,1.5-8,2.3l2.3,0.8H12.4z M12.7,142.2v-3.9h-5v1.1
				c5-2.3,5.9,3.4,2.8,2.9c-0.7-0.6-1.7-1.2-2.8-1.6v0.8c0,0.5,0,1.1-0.1,1.7C9.1,143.1,11,142.7,12.7,142.2z M13.8,150.6v3.8
				c0,0.4,0.1,0.5,1.2,0.5h3.9c1.1,0,2.3,0,2.8,0s0.8-0.1,1.1-0.5c0.5-0.5,1.1-1.6,1.9-3.5H25l0.1,3.6c1.4,0.5,1.7,1,1.7,1.8
				c0,1.9-1.8,2.3-8.5,2.3h-4.1c-4.2,0-5.2-0.7-5.2-3.5v-5.7l5.9,0.4C14.8,150.2,14.5,150.5,13.8,150.6z M17.6,153.5
				c-0.2-1.7-1.2-3.5-2.2-4.6l0.3-0.2C24.6,149.2,21.2,156.1,17.6,153.5z M22.6,129.1v2.9h2.6l2.2-2.9c0,0,2.4,2,3.8,3.3
				c-0.1,0.4-0.4,0.5-0.9,0.5h-7.7v2c0,0.4,0.1,0.6,0.9,0.6h2.3c0.7,0,1.5,0,1.9,0c0.3,0,0.8-0.1,1-0.1c0.3,0,0.8-0.1,1-0.2h0.3
				l0.2,0.1c1.1,0.5,1.5,0.8,1.5,1.5c0,1.7-1.5,2-6.5,2h-2.8c-3.4,0-4-0.8-4-3.2v-7.7l5.2,0.4C23.6,128.7,23.3,129,22.6,129.1z
				 M22.7,140.1v2.1h3l2.2-2.9c0,0,2.4,2,3.8,3.3c-0.1,0.4-0.5,0.5-0.9,0.5h-8v2c0,0.4,0.1,0.5,0.9,0.5h2.4c0.7,0,1.5,0,1.9,0
				c0.4,0,0.7-0.1,0.9-0.3c0.3-0.3,0.9-1,1.4-2.1h0.3l0.1,2.1c1.1,0.5,1.4,0.9,1.4,1.6c0,1.7-1.6,2.3-6.6,2.3h-2.9
				c-3.4,0-4.1-0.8-4.1-3.3v-7l5.4,0.4C23.7,139.7,23.4,140,22.7,140.1z M28.1,156.1c-0.2-2.2-1.6-4.5-3-5.9l0.3-0.2
				C35.7,150.9,32.2,159,28.1,156.1z"/>
			<path class="st0" d="M32.9,176c-0.1,0.4-0.5,0.5-0.9,0.5H9.2v7.8c0,5.8-0.4,13.2-7.6,17.9l-0.3-0.2c2.9-5.2,3-11.8,3-17.7v-10.6
				l5.5,1.9h7.3l-0.1-0.1c-0.4-1.7-1.5-3.5-2.6-4.6l0.2-0.2c7.4-0.6,7.7,3.5,5.6,4.8h6.3l2.3-3.1C28.8,172.5,31.4,174.6,32.9,176z
				 M25.5,187.5l3.9,3.7c-0.2,0.4-0.6,0.5-1.4,0.5c-1.2,1.8-2.6,3.3-4.3,4.7c2.9,0.6,6.1,0.8,9.4,0.9v0.4c-2,0.6-3.2,2.3-3.6,4.6
				c-3.9-0.7-7.2-1.7-9.9-3.3c-3.9,1.9-8.7,3-14.2,3.3l-0.1-0.4c4.6-1.1,8.7-2.6,11.9-4.8c-1.8-1.6-3.1-3.7-4.2-6.3h-2.2l-0.3-0.9
				h12.5L25.5,187.5z M17.1,178.6v2.4h4.3v-3.6l5.6,0.5c-0.1,0.4-0.3,0.7-1.1,0.8v2.4h0.8l1.9-3c0,0,2.2,2.1,3.3,3.4
				c-0.1,0.4-0.4,0.5-0.9,0.5h-5.1v5.2c0,0.3-2,1-3.7,1h-0.8v-0.9h-4.3v0.7c0,0.3-2,1-3.7,1h-0.8v-6.9h-3l-0.3-0.9h3.3v-3.6l5.6,0.5
				C18.1,178.2,17.9,178.5,17.1,178.6z M13.6,190.8c1.4,2,3.4,3.4,5.9,4.4c1.4-1.3,2.5-2.7,3.4-4.4H13.6z M17.1,181.9v4.4h4.3v-4.4
				H17.1z"/>
			<path class="st0" d="M3,214.7l4.7,2h3.2l1.9-2.1l3.9,2.9c-0.2,0.2-0.6,0.5-1.2,0.6v7.9c0,0.3-2.1,1.2-3.5,1.2h-0.8v-1.6H7.5v18
				c0,0.6-1.7,1.7-3.8,1.7H3v-28.7V214.7z M7.5,217.6v3.1h3.7v-3.1H7.5z M7.5,224.7h3.7v-3.1H7.5V224.7z M11.8,234.8v-0.9V230H9
				L8.7,229h11.5l1.9-2.5c0,0,2.2,1.7,3.5,2.9c-0.1,0.4-0.4,0.5-0.9,0.5h-3v4.1l1.3-1.9c0,0,2,1.7,3.1,2.9c-0.1,0.4-0.4,0.5-0.9,0.5
				h-3.6v7c0,0.2-1.2,0.8-3.2,0.8h-0.7v-7.8h-2.2c-0.3,2.9-1.7,6.2-6.8,8.2l-0.3-0.3c2.5-2.3,3.1-5.2,3.2-7.9H8.2l-0.3-0.9H11.8z
				 M15.7,230v3.9l0,0.9h2.2V230H15.7z M18.2,214.9l4.5,1.8h3.4l2.1-2.4l4.2,3.3c-0.2,0.3-0.7,0.6-1.3,0.7v21.9
				c0,3.1-0.6,4.7-5.3,5.2c-0.1-1.5-0.2-2.6-0.6-3.3c-0.4-0.7-0.9-1.2-2.3-1.5v-0.4c0,0,2.4,0.1,3,0.1c0.5,0,0.6-0.2,0.6-0.6v-14.1
				h-3.9c0,0.4-1.9,1.3-3.7,1.3h-0.6v-10.3V214.9z M22.6,217.6v3.1h3.9v-3.1H22.6z M22.6,224.7h3.9v-3.1h-3.9V224.7z"/>
			<path class="st0" d="M3.9,265.7c0.5-3.5,1-6.8,1.1-8.7l5.6,0.8c-0.1,0.4-0.3,0.8-1.3,0.9c-0.3,1.7-0.7,4.2-1.2,6.9l1.8-0.1
				c0-1.2,0-2.4,0-3.5l5.8,1c-0.1,0.5-0.5,0.9-1.3,0.9l-0.1,1.4l1.4-0.1v0.4l-1.4,0.5c-0.4,4.4-1.2,8.7-3,12.5c6,4,1.6,7.7-1.2,5.7
				c-0.3-0.6-0.7-1.3-1.1-1.9c-1.8,2.4-4.2,4.5-7.5,6.1l-0.3-0.3c2.7-2.4,4.6-5.2,5.9-8.2c-1.6-1.7-3.4-3.3-5.1-4.4
				c0.4-1.6,0.9-3.7,1.3-6.1l-0.4,0.1c-0.2,0.4-0.6,0.7-1,0.8L1,265.7C1.7,265.7,2.7,265.7,3.9,265.7z M7.6,268.2
				c-0.6,2.7-1.2,5.5-1.8,7.7c0.9,0.3,1.6,0.6,2.3,0.9c0.9-3,1.4-6.2,1.6-9.3L7.6,268.2z M28.4,271.9c-0.1-0.9-0.3-1.7-0.6-2.6
				c-2.6,0.9-6.3,2.1-10.7,3.2c-0.3,0.3-0.6,0.6-1,0.7l-1.6-5.3c0,0,0.9-0.2,1.3-0.5c1.7-1.5,4.3-7.2,4.8-10.4l6.7,2
				c-0.1,0.3-0.5,0.6-1.1,0.7c-2,2.9-5.5,6.4-8.5,8.5c2.5,0,6,0,9.6,0c-0.7-1.7-1.6-3.2-2.6-4.4l0.3-0.2
				C37,266.2,32.9,275.5,28.4,271.9z M20.9,275h5.2l2.2-2.4l4,3c-0.2,0.3-0.5,0.5-1.3,0.7v10.5c0,0.2-1.4,1-3.8,1h-0.9v-2.7h-5.7
				v2.1c0,0.3-1.4,1-3.6,1h-0.8v-14.8L20.9,275z M26.2,284v-8.1h-5.7v8.1H26.2z"/>
		</g>
	</g>
</g>
</svg>
