<?xml version="1.0" encoding="utf-8"?>
<!-- Generator: $$$/GeneralStr/196=Adobe Illustrator 27.6.0, SVG Export Plug-In . SVG Version: 6.00 Build 0)  -->
<svg version="1.1" id="圖層_1" xmlns="http://www.w3.org/2000/svg" xmlns:xlink="http://www.w3.org/1999/xlink" x="0px" y="0px"
	 viewBox="0 0 230 430" style="enable-background:new 0 0 230 430;" xml:space="preserve">
<style type="text/css">
	.st0{fill:#FFFEEF;}
	.st1{opacity:0.1;enable-background:new    ;}
</style>
<g>
	<g>
		<g>
			<path class="st0" d="M132,142.3l9.8,4h3.1v-8.7h-15l-0.8-3H145v-14.9l14.6,1.2c-0.1,1.3-0.9,2.3-3.4,2.7v10.9h2.9l5.7-7.4
				c0,0,5.6,4.4,9.5,8.1l10.8,4.3h6.2v-6.8h-19.7l-0.8-3h20.6v-9.9l14.5,1.3c-0.3,1.4-1.1,2.5-3.8,2.8v5.8h7.8l5.8-7.3
				c0,0,6.5,5.1,10.5,8.7c-0.3,1.1-1.3,1.7-2.8,1.7h-21.6v6.8h6.4l5-5.2l10.2,7.5c-0.5,0.7-1.8,1.4-3.3,1.8v19.8
				c-0.1,0.6-3.6,2.3-6.8,2.9c13.8,3.2,12,13.4,5.9,13.9c1.3,1.2,5.4,5.2,7.8,8c-0.3,1.1-1.3,1.7-2.8,1.7h-12.9v14.6
				c0,7.7-1.7,12-14.2,13c-0.2-3.4-0.6-6-1.9-7.6c-1.1-1.4-3-2.7-7.2-3.4V206c-2,0.7-4.5,0.3-6.8-1.9c0.2-4.6-1.7-9.9-3.9-13.3
				l0.9-0.5c15.7,3.3,15.7,12,11.3,15l8.6,0.5c1.3,0,1.8-0.4,1.8-1.5V190h-28l4,3.5c-0.2,1.1-1.3,1.7-2.8,1.7h-17.1v18.6
				c-0.1,0.7-3.5,3.1-9.1,3.1h-2v-21.7h-15.7l-0.8-3h16.5v-12.7h-3.5v3.7c0,0.9-4,3.1-8,3.1h-1.4v-40v-4H132z M146.1,149.3h-4.5v12
				h4.5V149.3z M141.5,164.2v12.4h4.5v-12.4H141.5z M159.6,161.3v-12h-4.5v12H159.6z M155.1,176.6h4.5v-12.4h-4.5V176.6z
				 M174.3,137.1c-0.4,0.3-1.1,0.5-2,0.5h-16.2v8.7h2.7l4.5-5l9.6,7.4c-0.6,0.7-2,1.5-3.8,1.9v31.1c-0.1,0.9-4.6,3.2-8,3.2h-1.5
				v-5.5h-3.5v12.7h3.6l5.7-7.4l5.9,4.8l-0.7-2.4H200v-9.8l15,1.3c-0.2,1.4-1.2,2.2-3.4,2.6v5.9h2.3l4.4-6.8c-0.8,0-1.7-0.3-2.5-0.7
				c-0.7-2.1-2.1-4.2-3.7-6.3c-7.6,2.4-18.2,5.5-32.6,9.2c-0.6,1.2-1.8,2-2.8,2.2l-5.1-11.7c4.2-0.1,11.3-0.3,19.9-0.8V163h-6.7v2.6
				c0,0.9-4.5,3.1-8.9,3.1h-1.4v-29V137.1z M191.4,142.5h-6.7v7.2h6.7V142.5z M184.6,152.7v7.2h6.7v-7.2H184.6z M209.3,149.7v-7.2
				h-7.4v7.2H209.3z M201.9,159.9h7.3v-7.2h-7.3V159.9z M209.3,165.7v-2.8h-7.4v8.6l8.2-0.5c-1.7-1.8-3.4-3.4-5-4.6l0.8-0.8
				L209.3,165.7z"/>
			<path class="st0" d="M227.3,258.7c-0.4,1.1-1.5,1.7-3.1,1.7h-20.4c-2.3,13.8-6.3,25.9-14.1,35.9c42.8,15.9,28.6,32.1,17.8,27.3
				c-6.2-6.6-15.4-13.2-25.4-19.2c-11.1,9.7-27.4,16.7-51.5,20.6l-0.7-1.2c20.2-6.1,33.9-14.5,43.1-24.5
				c-9.6-5.1-19.7-9.4-28.9-12.5c3-6.4,6.8-16.3,10.4-26.3h-22.9l-0.9-3h24.9c3.9-11.5,7.3-22.7,8.7-28.8l17.3,4.3
				c-0.4,1.2-1.2,2.4-4.4,2.3c-1.9,5.5-4.5,13.5-7.6,22.2h20.9c0.5-4.4,0.8-8.9,1-13.5l18.2,3.9c-0.5,1.7-1.9,2.5-4.1,2.5l-0.9,7.1
				h2.5l7.2-9.4C213.9,247.9,222.3,254.2,227.3,258.7z M189.8,260.3h-21.6c-3.4,9.4-7.2,19.1-10.6,26.8c7.7,1.8,14.8,3.5,20.8,5.4
				C184.7,282.9,188,272.1,189.8,260.3z"/>
			<path class="st0" d="M170.4,425.5v-38.7h-31.6l-0.8-3h32.4v-34h-35.5l-0.8-3h66.2l7.3-9.3c0,0,8.3,6.3,13.2,10.6
				c-0.2,1.1-1.3,1.7-2.9,1.7h-34.1v34h13.6l7-8.9c0,0,8,6,12.8,10.2c-0.3,1.1-1.3,1.7-2.9,1.7h-30.5v38.7h20.9l7.4-9.4
				c0,0,8.5,6.4,13.6,10.7c-0.3,1.1-1.3,1.7-3,1.7h-92l-0.8-3L170.4,425.5L170.4,425.5z"/>
		</g>
		<path class="st0" d="M123.5,1.5v106.1H230V1.5H123.5z M170.7,6.9c25.1,5.8,14.3,24.4,4.8,16.4c-0.1-5.6-2.9-11.8-5.8-15.9
			L170.7,6.9z M194.9,26.5c1.3-5.1,3.3-13.1,4.6-20.1l15.3,4.3c-0.4,1.2-1.7,2.2-3.9,2.2c-4,4.9-8.8,9.9-13,13.6h8.8l6.2-7.7
			c0,0,7,5.3,11.4,9c-0.2,1.1-1.3,1.7-2.8,1.7h-24.8v22.4c0,2.4-0.1,4.8-0.4,7.1h8.5V34.3l14.8,1.3c-0.2,1.4-1,2.5-3.8,2.9v26.6
			c0,0.8-4.9,2.8-9.1,2.8h-1.8v-6.1h-9c-2.1,10.4-8.8,19.9-29.5,26l-0.8-1.1c12.9-6.8,17.8-15.2,19.3-24.9h-6.6l-3.5,5.7l-11.5-6.9
			c0.8-0.9,2.1-2,3.3-2.9V34.3l14.9,1.4c-0.2,1.1-1.1,2-3.9,2.5v20.7h7.8c0.2-2.3,0.3-4.6,0.3-7V29.3h-23.9l-0.8-2.9h34.1V26.5z
			 M132.6,9.1c28.9,0.2,21.2,22.5,9.5,16.1c-1.5-5.6-6.2-11.9-10.3-15.4L132.6,9.1z M225.6,91.2c-4,0.9-5.9,4.9-6.1,9.3
			c-7,0-25.2,0-32.6,0c-19.5,0-30.6-3.3-37.8-16c-5.1,7.2-11.6,13.8-19.7,19.1l-1-1.1c10.8-12,18.1-30.1,21.1-46h-6l-3.7,3.4
			l-9.1-6.7c1-0.7,2.6-1.4,4.1-2c3.6-5,8.4-12.4,11.4-17.7h-15.5l-0.9-3h16.6l5.2-5.1l10,9.1c-0.9,1-3,1.5-5.4,1.7
			c-2.9,4.6-7.9,12.2-11.6,17.4h4.1l6.1-6.2l10.5,9c-0.6,1-1.7,1.3-4,1.5c-2.2,8-5.6,16.1-10.4,23.8c7.3,7.3,18.3,8.5,36.1,8.5
			c8.6,0,29.5,0,38.5-0.3v1.3H225.6z"/>
		<path class="st1" d="M132.4,9.3l0.3-0.2c20.5,0.1,22.6,11.4,17.9,15.6l0.9,0.8l0,0l0.9,0.8l1.3,1.2l0,0l7.8,7.1
			c-0.9,1-3,1.5-5.4,1.7c-2.9,4.6-7.9,12.2-11.6,17.4h4.1l6.1-6.2l10.5,9c-0.6,1-1.7,1.3-4,1.5c-2.2,8-5.6,16.1-10.4,23.8
			c7.3,7.3,18.3,8.5,36.1,8.5c8.6,0,29.5,0,38.5-0.3v0.4l4.5-7V1.5h-89.9L132.4,9.3L132.4,9.3z M170.7,6.9
			c25.1,5.8,14.3,24.4,4.8,16.4c-0.1-5.6-2.9-11.8-5.8-15.9L170.7,6.9z M194.9,26.5c1.3-5.1,3.3-13.1,4.6-20.1l15.3,4.3
			c-0.4,1.2-1.7,2.2-3.9,2.2c-4,4.9-8.8,9.9-13,13.6h8.8l6.2-7.7c0,0,7,5.3,11.4,9c-0.2,1.1-1.3,1.7-2.8,1.7h-24.8v22.4
			c0,2.4-0.1,4.8-0.4,7.1h8.5V34.3l14.8,1.3c-0.2,1.4-1,2.5-3.8,2.9v26.6c0,0.8-4.9,2.8-9.1,2.8h-1.8v-6.1h-9
			c-2.1,10.4-8.8,19.9-29.5,26l-0.8-1.1c12.9-6.8,17.8-15.2,19.3-24.9h-6.6l-3.5,5.7l-11.5-6.9c0.8-0.9,2.1-2,3.3-2.9V34.3l14.9,1.4
			c-0.2,1.1-1.1,2-3.9,2.5v20.7h7.8c0.2-2.3,0.3-4.6,0.3-7V29.3h-23.9l-0.8-2.9h34.1V26.5z"/>
	</g>
	<g>
		<g>
			<path class="st0" d="M51.1,430c-0.8,0-1.5-0.7-1.5-1.5v-29.8c0-0.8,0.7-1.5,1.5-1.5c0.8,0,1.5,0.7,1.5,1.5v29.8
				C52.6,429.3,51.9,430,51.1,430z"/>
		</g>
		<g>
			<path class="st0" d="M51.1,32.8c-0.8,0-1.5-0.7-1.5-1.5V1.5c0-0.8,0.7-1.5,1.5-1.5c0.8,0,1.5,0.7,1.5,1.5v29.8
				C52.6,32.1,51.9,32.8,51.1,32.8z"/>
		</g>
	</g>
	<g>
		<g>
			<path class="st0" d="M67.8,67.7v23.2c0,0.4-2.3,1.6-4.5,1.6h-1.1V72.1c-1.2,1.3-2.6,2.6-4,3.7l-0.5-0.4
				c2.8-5.2,5.5-13.2,6.6-20.9l7.7,2.2c-0.1,0.5-0.7,0.8-1.6,0.8c-1.1,3.1-2.4,5.9-3.9,8.4l2.4,0.8C68.9,67.3,68.5,67.6,67.8,67.7z
				 M95.6,70.4C95.5,70.9,95,71,94.5,71h-7c0.6,5.2,1.9,9.7,4.3,12.5c0.5,0.5,0.8,0.5,1.2-0.1c0.6-1,1.6-2.9,2.2-4.4l0.5,0.1
				l-0.8,6.5c1.1,2.4,1.6,4.1,0.4,5c-2.3,1.8-5.4-0.1-6.9-1.7c-3.9-4.7-5.4-10.9-6-17.8h-5.3V82l6.3-1.6l0.1,0.4
				c-1.8,1.6-5.2,4.3-9.6,7.4c-0.4,0.6-0.8,1-1.3,1.2l-3.3-5.9c1.9-1,2.2-1.4,2.2-2.5V58.3l5.8,1.8c4.2-1.7,8.7-3.7,11.1-5.3
				l5.7,5.3c-0.5,0.5-1.4,0.5-2.9,0c-1.1,0.2-2.4,0.5-3.7,0.7c-0.2,3.1-0.2,6.4,0.1,9.4h0.2l2.9-4C90.6,66.1,93.7,68.7,95.6,70.4z
				 M87.5,89.9c-0.1,0.5-0.5,0.6-1.1,0.6H73l-0.4-1.1h8.7l2.2-3C83.5,86.6,86,88.5,87.5,89.9z M77.1,69.9h5.1
				c-0.2-2.8-0.2-5.6-0.2-8.6c-1.6,0.1-3.1,0.4-4.8,0.4v1.3V69.9z"/>
			<path class="st0" d="M67,140.1h-0.8v-15.6c-2.5,1.4-5.2,2.6-7.9,3.5l-0.2-0.5c7.1-4.3,14-12.5,15.3-18.1l8.5,2.2
				c-0.1,0.6-0.7,0.8-2.2,1c3.6,4.6,11.3,6.6,16.9,7.4v0.6c-2.5,0.8-4.1,3.5-4.5,5.8l-2-1c-0.2,0.4-0.7,0.6-1.6,0.8v12.2
				c0,0.2-3,1.3-4.9,1.3h-1v-3.4H71.8v1.8C71.9,138.9,69.4,140.1,67,140.1z M72.7,106.4c-2.8,3.8-7.2,8.2-13.1,10.4l-0.2-0.4
				c4-3.7,6.9-9.6,8.1-13.9l6.9,3.2C74.2,106.1,73.7,106.4,72.7,106.4z M68.8,122.9l3.4,1.3h10l2.4-2.6c-2.4-2.3-4.3-5-5.4-8.5
				C76.8,116.6,73.1,120.1,68.8,122.9z M82.6,125.3H71.9v10.1h10.7V125.3z M88.5,114.2c-1.8-3.8-5.5-8-8.8-10.8l0.4-0.2
				C97.7,105.3,94.7,117.3,88.5,114.2z"/>
			<path class="st0" d="M60.8,155.6L67,158h5.2c0.6-2.5,1.2-5.6,1.6-7.8L82,152c-0.1,0.5-0.6,0.8-1.6,0.8c-1.6,1.4-3.5,3.5-5.7,5.2
				h13.1l2.5-2.9l5.2,4c-0.2,0.4-0.7,0.7-1.6,0.8v21.5c0,3.7-0.8,5.8-7.3,6.4c-0.1-1.8-0.5-3.1-1.2-4c-0.8-0.8-1.8-1.6-4.1-1.9v-0.5
				c0,0,4.8,0.4,6.1,0.4c0.7,0,0.8-0.4,0.8-0.8v-21.7H66.5v26.6c0,0.7-2.4,2-4.7,2h-1v-29.8V155.6z M69.6,162.6l5.3,2h4.3l2.4-2.6
				l4.9,3.7c-0.2,0.4-0.8,0.7-1.6,0.8V177c0,0.4-2.6,1.4-4.3,1.4h-1V175h-4.8v3c0,0.5-2.3,1.7-4.5,1.7h-0.7v-15v-2H69.6z
				 M79.7,173.9v-8.2h-4.8v8.2H79.7z"/>
			<path class="st0" d="M72.6,232.2v-33.8l7.8,0.7c-0.1,0.6-0.4,1-1.4,1.2v13.4h5.2l3.3-4.2c0,0,3.6,2.8,5.9,4.7
				c-0.1,0.5-0.6,0.6-1.2,0.6H79v17.4h7.8l3.4-4.2c0,0,3.7,2.9,6,4.7c-0.1,0.5-0.6,0.6-1.2,0.6H58.5l-0.4-1.1H72.6z"/>
			<path class="st0" d="M85.7,248.6c-0.7,1.7-1.4,3.2-2.3,4.7h4.9l3-3l4.8,4.3c-0.4,0.4-0.8,0.7-1.8,0.8
				c-0.2,16.7-0.7,23.2-3.1,25.6c-1.6,1.6-3.4,2.3-6.4,2.3c0-1.9-0.2-3.1-1-4c-0.7-0.8-2.3-1.6-4.3-2v-0.5c1.9,0.1,4.6,0.4,5.7,0.4
				c0.7,0,1.1-0.1,1.4-0.5c1.4-1.3,1.8-8.6,2-22.1h-6.1c-2,3.4-4.5,6.2-7.3,8.4l-0.2-0.1v16.1c0,0.4-2.6,1.4-4.5,1.4h-0.7V277H65
				v2.8c0,0.6-2,1.8-4.3,1.8h-0.8v-30.4l5.1,2c0.2-2.3,0.4-5.4,0.5-7.7l7.7,1.8c-0.2,0.7-0.7,1-1.7,1c-1.2,1.4-3,3.4-4.5,4.9h2.6
				l2.5-2.8l4.9,3.8c-0.2,0.4-0.8,0.7-1.6,0.8v6.6c1.9-4.2,3.7-10.6,4.7-16.4l7.5,2.2C87.2,248.2,86.7,248.6,85.7,248.6z M65,254.4
				v9.8h4.8v-9.8H65z M65,275.9h4.8v-10.4H65V275.9z M80.4,269.7c-0.1-2.9-1.2-6-2.6-8.2l0.4-0.2C90.8,264.1,85.4,273.9,80.4,269.7z
				"/>
			<path class="st0" d="M79.7,293.9c-0.1,0.6-0.5,1-1.4,1.1c-0.1,2.9-0.1,5.8-0.2,8.5h8.1l3.1-3.1l5.1,4.4c-0.4,0.4-0.8,0.7-1.8,0.8
				c-0.5,13.4-1.3,20.4-3.9,22.7c-1.7,1.6-3.5,2.2-7,2.2c0-1.8-0.2-3.2-1.2-4.1c-1-1-2.9-1.8-5.3-2.3v-0.4c2.5,0.1,6.1,0.4,7.3,0.4
				c0.7,0,1.2-0.1,1.6-0.5c1.4-1.2,2.2-8.2,2.5-19H78c-0.7,10.8-3.9,20-19.1,26.2l-0.4-0.5c10.5-7.4,12.9-15.8,13.4-25.7H60.5
				l-0.4-1.1h11.8c0.1-3.2,0.1-6.7,0.1-10.3L79.7,293.9z"/>
			<path class="st0" d="M74.2,371.9v-3.2h-4v0.5c0,0.5-2.6,1.8-4.9,1.8h-0.8v-14.3l6.1,2.3h12.9l2.4-2.6H59.4l-0.4-1.1h28.9l2.6-3.4
				c0,0,3,2.3,4.8,3.8c-0.1,0.5-0.6,0.6-1.1,0.6h-7.8l5.1,3.7c-0.2,0.4-0.8,0.8-1.7,1v7.4c0,0.1-0.4,0.2-0.8,0.4
				c1.1,0.8,2.9,2.3,4.1,3.4c-0.1,0.5-0.6,0.6-1.1,0.6h-0.8c0.7,0.6,3.3,2.5,4.9,4c-0.1,0.5-0.6,0.6-1.2,0.6h-36l-0.4-1.1h15.5v-3.5
				H62l-0.4-1.1h12.5V371.9z M64.9,341.2l6,2.3h12.2l2.5-2.8l5.3,3.8c-0.2,0.4-0.7,0.7-1.6,0.8v7.2c0,0.2-3,1.2-4.8,1.2h-1v-1.1h-13
				v0.4c0,0.5-2.5,1.7-4.8,1.7h-0.8v-11.3C64.9,343.5,64.9,341.2,64.9,341.2z M74.2,363.4v-3.1h-4v3.1H74.2z M70.1,367.6h4v-3.1h-4
				V367.6z M83.6,344.5h-13v2.9h13V344.5z M70.6,348.5v3h13v-3H70.6z M83.8,360.1h-4.1v3.1h4.1V360.1z M79.7,364.4v3.1h4.1v-3.1
				H79.7z M79.7,368.8v3.2h5.5l1.9-2.4c-0.8,0.1-1.7,0.2-2.3,0.2h-1v-1.1L79.7,368.8L79.7,368.8z M79.7,373.1v3.5h8.2l2.6-3.5H79.7z
				"/>
		</g>
		<g>
			<path class="st0" d="M35.3,56.9c-0.1,0.5-0.5,0.8-1.4,0.8c-0.6,1.3-1.3,2.8-2.3,4.2c10.2,1.4,6.4,9.7,1.6,6.7
				c-0.5-1.8-1.4-3.7-2.5-5.3c-1.7,2.3-3.7,4.4-6.3,6.1l5.8,0.6c-0.1,0.5-0.5,1-1.4,1.1v5.6h1.4l2.6-3.4c0,0,3,2.3,4.7,3.8
				c-0.1,0.5-0.6,0.6-1.1,0.6h-7.6v7.7c1.3,0.1,2.8,0.2,4.5,0.2c1.2,0,4,0,5.5,0v0.5c-1.6,0.4-2.4,2.5-2.3,5c-0.8,0-2.8,0-3.6,0
				c-7.5,0-11.9-1.9-14.1-9c-1.4,3.7-3.7,7.3-7.3,10L11.1,92c3.3-5.9,4-14.2,3.9-20l7.5,1.2c-0.1,0.6-0.6,1-1.6,1.1
				c-0.4,2.2-0.7,4.3-1.4,6.5c1,1.6,2.3,2.8,3.9,3.5V69.5h0.4c0.4-0.6,0.6-1.2,1-1.9c-1,0.4-2.3,0.2-3.4-0.7
				c-0.1-1.1-0.4-2.2-0.7-3.1c-1.8,2.8-4.2,5.3-7.1,7.2l-0.5-0.4c0.8-1.4,1.6-3,2-4.6c-0.1,0.4-0.6,0.6-1.4,0.5
				c-1.1,1.4-2.3,2.9-3.7,4.4l2.3,0.8c-0.1,0.4-0.5,0.6-1.2,0.7v18.1c0,0.5-2.3,1.8-4.6,1.8h-1V75.1c-1.6,1.2-3.1,2.3-4.8,3.2
				l-0.4-0.4c3.5-4.3,6.7-11,8.2-15.4l6.7,3.4c1.3-3.8,2-8,2.3-11.2l7.6,2.3c-0.1,0.5-0.5,0.8-1.4,0.8c-0.5,1.2-1.2,2.6-1.9,3.8
				c2.3,0.5,3.6,1.4,4.1,2.4c1.1-3.2,1.7-6.7,2-9.4L35.3,56.9z M14.5,58.3c-0.2,0.4-0.6,0.6-1.6,0.6c-2.9,2.6-7.5,6-12.2,8l-0.4-0.4
				c3-3.4,6.1-8.6,7.5-11.9L14.5,58.3z"/>
			<path class="st0" d="M17.3,116.5l3.3,2.5c-0.2,0.2-0.7,0.7-1.6,0.8v7.9c0,2.8-0.7,4.1-5.5,4.6c-0.1-1.2-0.1-2.2-0.6-2.6
				c-0.5-0.5-0.8-1-2.3-1.2V128c0,0,2.2,0.1,2.9,0.1c0.5,0,0.6-0.2,0.6-0.6v-2.2c-1.3,1.1-2.9,2.3-4.8,3.5c-0.1,0.5-0.5,0.8-1,1.1
				l-1.1-2.4c-1,2.2-2.8,4.1-6.6,5.5l-0.2-0.4c2.8-2.8,2.9-6.2,2.9-9.6v-6.8l-1.6-3.8c0,0,0.7-0.1,1.2-0.4c2-0.7,4.7-4.1,5.4-5.6
				l7.1,2.5c-0.1,0.4-0.6,0.7-1.4,0.7c-2.2,1.3-5.7,2.8-8.7,3.5h0.6h9c-0.5-1-1.1-1.8-1.8-2.5l0.4-0.2
				C23.2,110.7,21,117.4,17.3,116.5z M5.2,141.4c-1.6,0.6-3.5,0-4-1.7c-0.4-1.7,0.6-2.9,2-3.4c1.4-0.6,3-2.2,3-4.1h0.5
				C8.8,137,7.3,140.3,5.2,141.4z M13.7,117.9l2.2-2.4l0.1,0.1c-0.1-0.5-0.2-1-0.4-1.4c-2.4,0.7-5.8,1.8-9.6,2.8l2.8,1L13.7,117.9
				L13.7,117.9z M14.1,123.7V119h-6v1.3c6-2.8,7.1,4.1,3.4,3.5c-0.8-0.7-2-1.4-3.4-1.9v1c0,0.6,0,1.3-0.1,2
				C9.8,124.7,12,124.3,14.1,123.7z M15.4,133.7v4.6c0,0.5,0.1,0.6,1.4,0.6h4.7c1.3,0,2.8,0,3.4,0s1-0.1,1.3-0.6
				c0.6-0.6,1.3-1.9,2.3-4.2h0.4l0.1,4.3c1.7,0.6,2,1.2,2,2.2c0,2.3-2.2,2.8-10.2,2.8h-4.9c-5.1,0-6.3-0.8-6.3-4.2v-6.8l7.1,0.5
				C16.6,133.3,16.3,133.6,15.4,133.7z M20,137.2c-0.2-2-1.4-4.2-2.6-5.5l0.4-0.2C28.4,132.1,24.3,140.3,20,137.2z M26,107.9v3.5
				h3.1l2.6-3.5c0,0,2.9,2.4,4.6,4c-0.1,0.5-0.5,0.6-1.1,0.6H26v2.4c0,0.5,0.1,0.7,1.1,0.7h2.8c0.8,0,1.8,0,2.3,0
				c0.4,0,1-0.1,1.2-0.1c0.4,0,1-0.1,1.2-0.2h0.4l0.2,0.1c1.3,0.6,1.8,1,1.8,1.8c0,2-1.8,2.4-7.8,2.4h-3.4c-4.1,0-4.8-1-4.8-3.8
				v-9.2l6.3,0.5C27.2,107.5,26.9,107.8,26,107.9z M26.1,121.1v2.5h3.6l2.6-3.5c0,0,2.9,2.4,4.6,4c-0.1,0.5-0.6,0.6-1.1,0.6h-9.6
				v2.4c0,0.5,0.1,0.6,1.1,0.6h2.9c0.8,0,1.8,0,2.3,0s0.8-0.1,1.1-0.4c0.4-0.4,1.1-1.2,1.7-2.5h0.4l0.1,2.5c1.3,0.6,1.7,1.1,1.7,1.9
				c0,2-1.9,2.8-7.9,2.8H26c-4.1,0-4.9-1-4.9-4v-8.4l6.5,0.5C27.3,120.7,27,121,26.1,121.1z M32.6,140.3c-0.2-2.6-1.9-5.4-3.6-7.1
				l0.4-0.2C41.8,134.1,37.6,143.8,32.6,140.3z"/>
			<path class="st0" d="M38.4,164.2c-0.1,0.5-0.6,0.6-1.1,0.6H9.9v9.4c0,7-0.5,15.8-9.2,21.5l-0.4-0.2c3.5-6.2,3.6-14.2,3.6-21.2
				v-12.7l6.6,2.3h8.8l-0.1-0.1c-0.5-2-1.8-4.2-3.1-5.5l0.2-0.2c8.9-0.7,9.3,4.2,6.7,5.8h7.6l2.8-3.7
				C33.5,160,36.6,162.5,38.4,164.2z M29.5,178l4.7,4.4c-0.2,0.5-0.7,0.6-1.7,0.6c-1.4,2.2-3.1,4-5.2,5.6c3.5,0.7,7.3,1,11.3,1.1
				v0.5c-2.4,0.7-3.9,2.8-4.3,5.5c-4.7-0.8-8.7-2-11.9-4c-4.7,2.3-10.5,3.6-17.1,4l-0.1-0.5c5.5-1.3,10.5-3.1,14.3-5.8
				c-2.2-1.9-3.7-4.4-5.1-7.6h-2.6l-0.4-1.1h15.1L29.5,178z M19.4,167.3v2.9h5.2v-4.3l6.7,0.6c-0.1,0.5-0.4,0.8-1.3,1v2.9h1l2.3-3.6
				c0,0,2.6,2.5,4,4.1c-0.1,0.5-0.5,0.6-1.1,0.6H30v6.2c0,0.4-2.4,1.2-4.5,1.2h-1v-1.1h-5.2v0.8c0,0.4-2.4,1.2-4.5,1.2h-1v-8.3h-3.6
				l-0.4-1.1h4v-4.3l6.7,0.6C20.6,166.8,20.4,167.2,19.4,167.3z M15.2,182c1.7,2.4,4.1,4.1,7.1,5.3c1.7-1.6,3-3.2,4.1-5.3H15.2z
				 M19.4,171.3v5.3h5.2v-5.3H19.4z"/>
			<path class="st0" d="M2.4,210.6l5.7,2.4h3.9l2.3-2.5l4.7,3.5c-0.2,0.2-0.7,0.6-1.4,0.7v9.5c0,0.4-2.5,1.4-4.2,1.4h-1v-1.9H7.8
				v21.6c0,0.7-2,2-4.6,2H2.4v-34.4V210.6z M7.8,214.1v3.7h4.5v-3.7H7.8z M7.8,222.6h4.5v-3.7H7.8V222.6z M13,234.8v-1.1V229H9.6
				l-0.4-1.2h13.8l2.3-3c0,0,2.6,2,4.2,3.5c-0.1,0.5-0.5,0.6-1.1,0.6h-3.6v4.9l1.6-2.3c0,0,2.4,2,3.7,3.5c-0.1,0.5-0.5,0.6-1.1,0.6
				h-4.3v8.4c0,0.2-1.4,1-3.9,1h-0.8v-9.4h-2.6c-0.4,3.5-2,7.4-8.2,9.8l-0.4-0.4c3-2.8,3.7-6.2,3.9-9.5H8.7l-0.4-1.1H13V234.8z
				 M17.7,229v4.7v1.1h2.6V229H17.7z M20.7,210.9l5.4,2.2h4.1l2.5-2.9l5.1,4c-0.2,0.4-0.8,0.7-1.6,0.8v26.3c0,3.7-0.7,5.6-6.4,6.2
				c-0.1-1.8-0.2-3.1-0.7-4c-0.5-0.8-1.1-1.4-2.8-1.8v-0.5c0,0,2.9,0.1,3.6,0.1c0.6,0,0.7-0.2,0.7-0.7v-16.9H26
				c0,0.5-2.3,1.6-4.5,1.6h-0.7v-12.4v-2H20.7z M26,214.1v3.7h4.7v-3.7H26z M26,222.6h4.7v-3.7H26V222.6z"/>
			<path class="st0" d="M3.5,271.8c0.6-4.2,1.2-8.2,1.3-10.4l6.7,1c-0.1,0.5-0.4,1-1.6,1.1c-0.4,2-0.8,5-1.4,8.3l2.2-0.1
				c0-1.4,0-2.9,0-4.2l7,1.2c-0.1,0.6-0.6,1.1-1.6,1.1l-0.1,1.7l1.7-0.1v0.5l-1.7,0.6c-0.5,5.3-1.4,10.4-3.6,15
				c7.2,4.8,1.9,9.2-1.4,6.8c-0.4-0.7-0.8-1.6-1.3-2.3c-2.2,2.9-5.1,5.4-9,7.3l-0.4-0.4c3.3-2.9,5.5-6.2,7.1-9.8
				c-1.9-2-4.1-4-6.1-5.3c0.5-1.9,1.1-4.4,1.6-7.3l-0.5,0.1c-0.2,0.5-0.7,0.8-1.2,1L0,271.8C0.8,271.8,2,271.8,3.5,271.8z
				 M7.9,274.8c-0.7,3.2-1.4,6.6-2.2,9.2c1.1,0.4,1.9,0.7,2.8,1.1c1.1-3.6,1.7-7.4,1.9-11.2L7.9,274.8z M33,279.3
				c-0.1-1.1-0.4-2-0.7-3.1c-3.1,1.1-7.6,2.5-12.9,3.8c-0.4,0.4-0.7,0.7-1.2,0.8l-1.9-6.4c0,0,1.1-0.2,1.6-0.6
				c2-1.8,5.2-8.6,5.8-12.5l8.1,2.4c-0.1,0.4-0.6,0.7-1.3,0.8c-2.4,3.5-6.6,7.7-10.2,10.2c3,0,7.2,0,11.6,0c-0.8-2-1.9-3.8-3.1-5.3
				l0.4-0.2C43.4,272.4,38.4,283.6,33,279.3z M24,283h6.3l2.6-2.9l4.8,3.6c-0.2,0.4-0.6,0.6-1.6,0.8v12.6c0,0.2-1.7,1.2-4.6,1.2
				h-1.1v-3.2h-6.9v2.5c0,0.4-1.7,1.2-4.3,1.2h-1v-17.8L24,283z M30.3,293.8v-9.7h-6.9v9.7H30.3z"/>
		</g>
	</g>
</g>
</svg>
